<svg data-v-0dd9719b="" version="1.0" xmlns="http://www.w3.org/2000/svg" xmlns:xlink="http://www.w3.org/1999/xlink" width="100%" height="100%" viewBox="85 95 170 55" preserveAspectRatio="xMidYMid meet" color-interpolation-filters="sRGB" style="margin: auto;">
    <g data-v-0dd9719b="" fill="#eb001b" class="bordersvg b-d1" transform="translate(79.44294738769531,78.42106628417969)">
        <g transform="translate(0,20)">
            <g transform="translate(10,3)">
                <g data-gra="path-name" fill-rule="" stroke="#eb001b" class="tp-name">
                    <g transform="scale(0.51)">
                        <g>
                            <path d="M36.93-73.04560000000001Q36.93-41.4664 36.93-9.8872 27.84-7.520800000000001 18.76-5.1000000000000005 18.76-38.637600000000006 18.76-72.1616 10.55-71.7536 2.35-71.3456 2.35-81.3824 2.35-91.43280000000001 27.82-91.43280000000001 53.3-91.43280000000001 53.3-82.28 53.3-73.78 45.11-73.4264 36.93-73.04560000000001 36.93-73.04560000000001 36.93-73.04560000000001M120.54-91.43280000000001Q120.54-57.92240000000001 120.54-25.6496 111.41-24.643200000000004 102.29-23.432800000000004 102.29-37.06 102.29-50.68720000000001 91.73-49.7488 81.18-48.674400000000006 81.18-34.272 81.18-19.896800000000002 72.05-18.088 62.92-16.1296 62.92-53.38 62.92-91.43280000000001 72.05-91.43280000000001 81.18-91.43280000000001 81.18-77.384 81.18-64.3144 91.73-64.95360000000001 102.29-65.5112 102.29-77.9008 102.29-91.43280000000001 111.41-91.43280000000001 120.54-91.43280000000001 120.54-91.43280000000001 120.54-91.43280000000001M153.34-27.512800000000002Q144.21-27.2816 135.08-26.832800000000002 135.08-58.480000000000004 135.08-91.43280000000001 144.21-91.43280000000001 153.34-91.43280000000001 153.34-58.806400000000004 153.34-27.512800000000002 153.34-27.512800000000002 153.34-27.512800000000002M190.64-49.42240000000001Q188.33-49.5448 186.04-49.653600000000004 186.04-38.052800000000005 186.04-26.4792 176.95-27.050400000000003 167.87-27.404 167.87-58.75200000000001 167.87-91.43280000000001 178.88-91.43280000000001 189.9-91.43280000000001 217.31-91.43280000000001 217.31-70.4072 217.31-70.4072 217.31-70.4072 217.31-58.684000000000005 205.91-53.135200000000005 205.91-53.135200000000005 205.91-53.135200000000005 215.7-37.7672 225.5-21.556 215.19-23.2016 204.89-24.5888 197.76-37.196000000000005 190.64-49.42240000000001 190.64-49.42240000000001 190.64-49.42240000000001M186.04-77.1392Q186.04-69.8632 186.04-62.58720000000001 187.74-62.5328 189.44-62.4784 198.96-62.111200000000004 198.96-70.2304 198.96-70.2304 198.96-70.2304 198.96-76.93520000000001 189.62-77.0848 189.62-77.0848 189.62-77.0848 187.83-77.11200000000001 186.04-77.1392 186.04-77.1392 186.04-77.1392M292.74-6.283200000000001Q282.8-8.894400000000001 272.87-11.424000000000001 271.2-19.244000000000003 269.56-26.968799999999998 258.63-29.063200000000002 247.71-31.0216 246.01-24.4664 244.31-17.992800000000003 234.33-19.9648 224.35-21.7464 235.32-55.284 246.29-91.8272 258.39-91.8272 270.52-91.8272 281.63-50.265600000000006 292.74-6.283200000000001 292.74-6.283200000000001 292.74-6.283200000000001M251.48-46.797599999999996Q258.63-45.88640000000001 265.79-44.92080000000001 264.33-51.4488 262.89-57.93600000000001 261.88-62.2336 260.43-68.9792 258.98-75.6568 258.52-78.52640000000001 258.52-78.52640000000001 258.52-78.52640000000001 258.11-75.9016 256.89-69.904 255.67-63.94720000000001 251.48-46.797599999999996 251.48-46.797599999999996 251.48-46.797599999999996 251.48-46.797599999999996 251.48-46.797599999999996M318.26 0.6392Q309.13-1.8496000000000004 300.01-4.324800000000001 300.01-47.7632 300.01-91.43280000000001 309.13-91.43280000000001 318.26-91.43280000000001 318.26-45.396800000000006 318.26 0.6392 318.26 0.6392 318.26 0.6392" transform="translate(-2.3499999046325684, 91.82720184326172)" stroke-width="3.2" stroke-linejoin="round">
                            </path>
                        </g>
                    </g>
                </g>
            </g>
        </g>
    </g>
</svg>
